<?xml version="1.0" encoding="utf-8"?>
<!-- Generator: Adobe Illustrator 16.0.0, SVG Export Plug-In . SVG Version: 6.00 Build 0)  -->
<!DOCTYPE svg PUBLIC "-//W3C//DTD SVG 1.1//EN" "http://www.w3.org/Graphics/SVG/1.1/DTD/svg11.dtd">
<svg version="1.1" id="Layer_1" xmlns="http://www.w3.org/2000/svg" xmlns:xlink="http://www.w3.org/1999/xlink" x="0px" y="0px"
	 width="256px" height="256px" viewBox="0 0 256 256" enable-background="new 0 0 256 256" xml:space="preserve">
<g>
	<g id="Layer_1_1_">
		<g>
			<radialGradient id="SVGID_1_" cx="210.8994" cy="125.1504" r="66.075" gradientUnits="userSpaceOnUse">
				<stop  offset="0" style="stop-color:#FBEEC0"/>
				<stop  offset="0.8078" style="stop-color:#F6DC70"/>
			</radialGradient>
			<polygon fill-rule="evenodd" clip-rule="evenodd" fill="url(#SVGID_1_)" points="199.699,143.051 186.45,94.65 237.899,124.7 
				254,175.301 			"/>
			<radialGradient id="SVGID_2_" cx="146.1494" cy="184.9004" r="98.85" gradientUnits="userSpaceOnUse">
				<stop  offset="0" style="stop-color:#F6DC70"/>
				<stop  offset="1" style="stop-color:#F2CE43"/>
			</radialGradient>
			<polygon fill-rule="evenodd" clip-rule="evenodd" fill="url(#SVGID_2_)" points="199.699,143.051 148.649,194.15 135.399,145.6 
				186.45,94.65 			"/>
			
				<radialGradient id="SVGID_3_" cx="174.5996" cy="78.5503" r="131.575" fx="172.0197" fy="78.5503" gradientUnits="userSpaceOnUse">
				<stop  offset="0" style="stop-color:#F6DC70"/>
				<stop  offset="1" style="stop-color:#D0AA1F"/>
			</radialGradient>
			<polygon fill-rule="evenodd" clip-rule="evenodd" fill="url(#SVGID_3_)" points="148.649,194.15 199.699,143.051 254,175.301 
				205.949,223.4 			"/>
			
				<radialGradient id="SVGID_4_" cx="86.2002" cy="98.4492" r="274.2877" gradientTransform="matrix(0.9659 0.2588 -0.1437 0.5363 17.0851 23.3402)" gradientUnits="userSpaceOnUse">
				<stop  offset="0" style="stop-color:#2A7C3A"/>
				<stop  offset="1" style="stop-color:#88B135"/>
			</radialGradient>
			<polygon fill-rule="evenodd" clip-rule="evenodd" fill="url(#SVGID_4_)" points="76.25,15 125.2,124.45 55.5,89.7 			"/>
			
				<radialGradient id="SVGID_5_" cx="32.4995" cy="164.9492" r="86.3905" gradientTransform="matrix(0.866 -0.5 0.2821 0.4886 -42.1727 100.6039)" gradientUnits="userSpaceOnUse">
				<stop  offset="0" style="stop-color:#5FB0C5"/>
				<stop  offset="1" style="stop-color:#29769A"/>
			</radialGradient>
			<path fill-rule="evenodd" clip-rule="evenodd" fill="url(#SVGID_5_)" d="M2.2,158.801l-0.05-0.051
				c-1.4-2.5,0.867-6.684,6.8-12.551c5.933-5.865,13.85-11.684,23.75-17.449c9.867-5.7,18.833-9.667,26.9-11.9
				c8.033-2.1,12.8-1.95,14.3,0.45l0.05,0.1c1.267,2.467-1,6.6-6.8,12.401c-5.966,5.898-13.883,11.699-23.75,17.398
				c-9.9,5.734-18.9,9.717-27,11.951C8.434,161.316,3.7,161.199,2.2,158.801z"/>
			
				<radialGradient id="SVGID_6_" cx="45.7998" cy="144.999" r="48.5697" fx="66.9419" fy="144.999" gradientTransform="matrix(0.8662 -0.4997 1.4073 2.4393 -197.9272 -185.8138)" gradientUnits="userSpaceOnUse">
				<stop  offset="0" style="stop-color:#5FB0C5"/>
				<stop  offset="1" style="stop-color:#29769A"/>
			</radialGradient>
			<path fill-rule="evenodd" clip-rule="evenodd" fill="url(#SVGID_6_)" d="M73.95,117.4l46.75,80.95
				c1.4,2.566-0.867,6.75-6.8,12.551c-6,5.865-13.933,11.65-23.8,17.35c-9.9,5.732-18.867,9.732-26.9,12
				c-7.967,2.166-12.7,2-14.2-0.5L2.2,158.801c1.5,2.398,6.233,2.516,14.2,0.35c8.1-2.234,17.1-6.217,27-11.951
				c9.867-5.699,17.784-11.5,23.75-17.398C72.95,124,75.217,119.867,73.95,117.4z"/>
			
				<radialGradient id="SVGID_7_" cx="160.9492" cy="137.4492" r="154.1786" gradientTransform="matrix(0.5021 0.8648 -2.4868 1.444 421.9469 -200.2102)" gradientUnits="userSpaceOnUse">
				<stop  offset="0" style="stop-color:#2A7C3A"/>
				<stop  offset="0.6667" style="stop-color:#88B135"/>
				<stop  offset="1" style="stop-color:#C2D169"/>
			</radialGradient>
			<polygon fill-rule="evenodd" clip-rule="evenodd" fill="url(#SVGID_7_)" points="125.2,124.45 76.25,15 181.05,35.8 			"/>
		</g>
	</g>
</g>
</svg>
